<svg version="1.1" viewBox="0.0 0.0 960.0 720.0" fill="none" stroke="none" stroke-linecap="square" stroke-miterlimit="10" xmlns:xlink="http://www.w3.org/1999/xlink" xmlns="http://www.w3.org/2000/svg"><clipPath id="p.0"><path d="m0 0l960.0 0l0 720.0l-960.0 0l0 -720.0z" clip-rule="nonzero"/></clipPath><g clip-path="url(#p.0)"><path fill="#000000" fill-opacity="0.0" d="m0 0l960.0 0l0 720.0l-960.0 0z" fill-rule="evenodd"/><path fill="#33658a" d="m0 0l174.14174 0l0 498.99213l-174.14174 0z" fill-rule="evenodd"/><path fill="#33658a" d="m223.85826 719.9727l0 0c-59.99141 0 -117.47254 -24.079163 -159.55234 -66.83734c-42.079796 -42.75818 -65.23666 -100.617004 -64.277306 -160.60074l174.50206 2.7908936l0 0c-0.21141052 13.219208 4.8918915 25.970123 14.165436 35.39322c9.273544 9.423035 21.941238 14.729614 35.16214 14.729614z" fill-rule="evenodd"/><path fill="#33658a" d="m217.1601 545.8294l252.8819 0l0 174.14172l-252.8819 0z" fill-rule="evenodd"/><path fill="#33658a" d="m347.07404 0l174.14172 0l0 720.0l-174.14172 0z" fill-rule="evenodd"/><path fill="#f6ae2d" d="m657.80316 545.8294l302.2047 0l0 174.14172l-302.2047 0z" fill-rule="evenodd"/><path fill="#f6ae2d" d="m521.22034 0l174.14172 0l0 720.0l-174.14172 0z" fill-rule="evenodd"/></g></svg>